<svg class="<%=className%>" width="<%=w%>" height="<%=h%>" viewBox="0 0 106 64" fill="none" xmlns="http://www.w3.org/2000/svg">
    <path d="M7.7562 57.2197L3.77866 49.841H0V63.8007H3.57978V56.0232L6.36406 61.0088H9.14834L11.9326 56.0232V63.8007H15.5124V49.841H11.7337L7.7562 57.2197ZM27.445 49.6416H22.4731C21.081 49.6416 20.07 49.9574 19.4402 50.5889C18.8104 51.2204 18.4956 52.2341 18.4956 53.6301V60.0117C18.4956 61.4076 18.8104 62.4214 19.4402 63.0529C20.07 63.6844 21.081 64.0002 22.4731 64.0002H27.445C28.8372 64.0002 29.8481 63.6844 30.4779 63.0529C31.1077 62.4214 31.4226 61.4076 31.4226 60.0117V53.6301C31.4226 52.2341 31.1077 51.2204 30.4779 50.5889C29.8481 49.9574 28.8372 49.6416 27.445 49.6416ZM27.8428 60.0117C27.8428 60.8094 27.445 61.2082 26.6495 61.2082H23.2686C22.4731 61.2082 22.0753 60.8094 22.0753 60.0117V53.6301C22.0753 52.8324 22.4731 52.4335 23.2686 52.4335H26.6495C27.445 52.4335 27.8428 52.8324 27.8428 53.6301V60.0117ZM42.9574 55.3252H37.9855V49.841H34.4057V63.8007H37.9855V58.1171H42.9574V63.8007H46.5372V49.841H42.9574V55.3252ZM49.9181 63.8007H60.9558V61.0088H53.4979V58.1171H59.3648V55.3252H53.4979V52.633H60.9558V49.841H49.9181V63.8007ZM75.1257 57.4981C74.9075 57.2059 74.652 56.9732 74.3606 56.8001C74.0692 56.627 73.7764 56.501 73.485 56.4206C73.9891 56.2212 74.4131 55.8722 74.7584 55.3737C75.1036 54.8751 75.2749 54.227 75.2749 53.4293C75.2749 52.2203 74.9697 51.3187 74.3606 50.7274C73.7502 50.136 72.7958 49.8396 71.4962 49.8396H63.5412V63.7993H72.0929C73.3925 63.7993 74.3468 63.4933 74.9573 62.8826C75.5663 62.2718 75.8715 61.3135 75.8715 60.0103C75.8715 59.4646 75.8025 58.9827 75.663 58.5645C75.5235 58.1462 75.344 57.7903 75.1257 57.4981ZM67.1209 52.633H70.5019C71.2974 52.633 71.6951 53.0318 71.6951 53.8295V54.2284C71.6951 55.0261 71.2974 55.4249 70.5019 55.4249H67.1209V52.633ZM72.2917 59.8122C72.2917 60.6099 71.894 61.0088 71.0985 61.0088H67.1209V58.2169H71.0985C71.894 58.2169 72.2917 58.6157 72.2917 59.4134V59.8122ZM82.5339 49.841L77.2637 63.8007H81.1418L82.0367 61.3079H87.0086L87.9036 63.8007H91.7817L86.5115 49.841H82.5339ZM82.9317 58.7154L84.5227 54.0289L86.1137 58.7154H82.9317ZM102.122 56.7212L104.011 53.1315C104.091 52.9847 104.21 52.849 104.369 52.723C104.528 52.597 104.707 52.5333 104.906 52.5333H105.702V49.841C105.529 49.8147 105.344 49.7815 105.145 49.7413C104.972 49.715 104.781 49.6915 104.568 49.6721C104.355 49.6527 104.137 49.6416 103.912 49.6416C103.209 49.6416 102.643 49.8175 102.212 50.1706C101.781 50.5224 101.419 50.978 101.128 51.5361L99.1388 55.3252H97.3489V49.841H93.7691V63.8007H97.3489V58.1171H99.1388L102.221 63.8007H106L102.122 56.7212Z" fill="#BF2738"/>
    <path d="M79.8063 30.9995V6.8096C79.8063 6.8096 79.9775 3.66866 78.5647 2.24915C77.1518 0.828248 74.043 1.03183 74.043 1.03183H32.5689C32.5689 1.03183 29.0485 0.947349 27.5182 2.55382C26.0336 4.1146 26.0639 7.34832 26.0639 7.34832V30.5965C26.0639 30.5965 25.8996 33.9008 27.5182 35.4589C29.1824 37.0584 32.631 36.913 32.631 36.913H73.7737C73.7737 36.913 77.0068 37.1415 78.5357 35.6403C80.0231 34.1847 79.8063 30.9995 79.8063 30.9995Z" fill="#BF2738"/>
    <path d="M76.6118 3.9347C75.8978 3.2561 74.6327 3.01929 74.6327 3.01929H65.4981C65.4981 3.01929 51.0837 27.5859 49.6653 29.2754C45.174 34.628 39.1608 34.7707 39.1608 34.7707H74.9379C74.9379 34.7707 76.1229 34.5353 76.7651 33.8553C77.4183 33.1628 77.5261 32.0231 77.5261 32.0231V5.76691C77.5261 5.76691 77.3438 4.62992 76.6118 3.9347Z" fill="#1A1A1A"/>
    <path d="M60.9585 0.0127166C58.0416 -0.170089 54.6939 1.64135 54.6939 1.64135L37.0574 17.9291C37.0574 17.9291 47.9597 14.9183 49.356 22.8163C51.2854 33.7196 37.9855 34.8441 37.9855 34.8441C37.9855 34.8441 43.8869 35.4382 48.8919 30.7282C53.4578 26.4309 65.8324 3.0387 65.8324 3.0387C65.8324 3.0387 63.5964 0.178904 60.9585 0.0127166Z" fill="white"/>
</svg>
